<?xml version="1.0" encoding="UTF-8"?>
<svg width="50" height="50" version="1.1" viewBox="0 0 13.229 13.229" xmlns="http://www.w3.org/2000/svg">
 <path d="m2.5225-0.033223c-1.4598 0-2.635 1.1751-2.635 2.635v8.1029c0 1.4598 1.1751 2.6355 2.635 2.6355h8.0538c1.4598 0 2.635-1.1756 2.635-2.6355v-8.1029c0-1.4598-1.1751-2.635-2.635-2.635zm8.7271 1.2717-0.0512 2.3802-0.15038-0.0372c-0.73146-0.18267-1.4507-0.17296-2.1001 0.31627h1e-3v1.8914h2.1714v2.296h-2.1714l0.10507 5.2448-2.12 0.0122-0.14104-5.257h-1.6464v-2.296h1.6464v-1.8914l0.0129-0.13747c0.0906-0.97295 0.31807-1.7433 1.4779-2.4991l0.031-0.0207z" fill="#e9e9e9" opacity=".5" stroke-width="0"/>
</svg>
