<?xml version="1.0" encoding="UTF-8"?>
<svg width="50" height="50" version="1.1" viewBox="0 0 13.229 13.229" xmlns="http://www.w3.org/2000/svg">
 <path d="m6.4939 0.19457c-3.6153 7.779e-5 -6.5461 2.9146-6.5462 6.5098-8.849e-5 3.0332 2.1061 5.5089 4.9292 6.2319 0.78191 0.03549 1.2027-0.06068 1.6876-0.03005 0.60975-0.0078 1.6645-0.04279 1.6645-0.04279 0.35041 0.054073 4.1839-0.66353 4.8113-6.1591 0.10474-3.6934-2.9378-6.5126-6.5466-6.5098zm3.3521 2.6307 0.10009 1.935c1.3057 1.7817 0.6482 3.4235-0.42954 4.2374-0.5291 0.39956-1.1567 0.34312-1.7326 0.59558 0.72793 1.3036 0.30808 2.1843 0.44508 3.2703l-3.3521 0.072833-0.0090435-1.4899-1.3352-0.054553-1.7443-1.9983 0.65397-0.10919 1.1445 1.2264 1.2355 0.081974 0.34537-0.96296c-2.2824-0.73793-3.6642-2.0146-2.1348-5.0327l-0.054582-1.6988c0.76543 0.024505 1.3737 0.33717 1.935 0.73587l3.3612-0.054552c0.39948-0.40336 0.86593-0.72471 1.5714-0.75405z" fill="#e9e9e9" opacity=".5" stroke-width="0"/>
</svg>
