<?xml version="1.0" encoding="UTF-8"?>
<svg width="440" height="626.67" version="1.1" viewBox="0 0 440 626.67" xmlns="http://www.w3.org/2000/svg" xmlns:xlink="http://www.w3.org/1999/xlink">
 <defs>
  <linearGradient id="linearGradient61954" x1="772.93" x2="985.18" y1="137.99" y2="137.99" gradientUnits="userSpaceOnUse">
   <stop stop-color="#9c9b9a" offset="0"/>
   <stop stop-color="#9c9b9a" stop-opacity="0" offset="1"/>
  </linearGradient>
  <linearGradient id="linearGradient61962" x1="543.41" x2="983.85" y1="307.46" y2="307.46" gradientUnits="userSpaceOnUse">
   <stop stop-color="#c3c4c5" offset="0"/>
   <stop stop-color="#c3c4c5" stop-opacity="0" offset="1"/>
  </linearGradient>
 </defs>
 <g>
  <g transform="translate(-544,32)" stroke="#ecf0dd" stroke-width="3">
   <path d="m890.14 257.72c11.918-15.006 30.639-18.52 46.619-13.17 11.905 2.5624 21.174 12.375 26.631 32.67 10.941 6.3772 19.246 13.853 18.949 24.913-12.833 0.70216-50.692-8.3563-53.74 32.88-5.6217 32.414-13.296 63.628-43.487 81.671-13.844 12.724-32.313 19.501-37.123 43.841 11.914 5.9461 26.803 10.405 35.355 18.031 8.9885 8.2496 7.9512 16.499 1.4142 24.749-0.61602 5.148-4.2632 6.0523-7.0711 8.1317l-0.7071-6.8059-3.4472 0.0884c-0.92899 4.8084-3.7638 6.7582-7.513 7.3362l0.0884-9.2808-1.8562-14.319c-1.5612-3.7953-2.8028-8.038-6.6291-8.6621-3.5644 1.0126-4.803 5.9015-5.5685 11.579v9.8995c-2.9537-2.067-5.5152-4.281-5.8336-7.3362-3.7923-1.8323-5.7753-4.8708-5.5685-9.3692l4.8614-7.8666c1.2041-2.8476 1.0812-5.287-2.0329-6.8059l-4.331-2.8284c-9.914 3.7234-20.651 3.0565-31.555 1.5026 32.465 18.08 40.577 29.957 37.83 39.068-0.78127 4.5735-3.7479 6.5974-6.4524 8.9272-2.0151 4.9443-5.0581 6.8048-8.3969 7.7782l-0.17678-7.6898-3.7123-0.0884c-1.2291 5.7029-3.9027 8.517-8.1317 8.2201l0.70711-9.5459-1.4142-2.6517 0.0884-18.031c-3.6632-6.1577-7.0787-7.1138-10.076 0.70711l-2.74 6.6291 0.61872 9.2808c-3.058-1.1083-6.1687-2.1242-6.6291-7.7782-5.1076-3.3256-4.8614-5.2505-4.8614-10.96l8.6621-10.076c-2.8976-4.1423-5.9221-8.1366-10.783-9.9879-5.7433 1.6649-9.5905 4.8811-11.667 9.5459l5.8336 46.492c-2.3815 10.477-6.205 17.133-15.203 10.076-5.5946 16.541-8.0628 39.265-27.931 27.577-9.5996 14.299-19.188 27.522-28.461 11.137-9.3182 7.1207-21.917 19.427-32.309-1.2271-14.137 6.0205-26.35 6.8896-30.25-14.5-28.077 1.1965-40.014-7.6288-17.25-38 13.243-12.214 27.769-23.359 45-32.25l45.25-31.5c10.206-6.8842 17.042-16.951 21.25-29.5l22.25-50.5c-7.6932 1.2704-19.785 0.87356-23.79-2.1022-1.0797-0.16865-0.59352-2.606 2.0402-8.6478-11.643 2.1329-23.401 2.4423-35.377-0.74581-0.22378-3.0103 0.20017-6.5063 2.6266-11.504-10.68-0.85246-21.082-0.25302-33.357-9.3994 1.681-3.713 5.5096-6.2625 8.857-8.9756-17.183-1.2578-34.548-2.3408-43.616-11.389 2.1527-3.461 4.7742-6.855 9.2406-9.9855-18.665-4.6161-33.703-12.725-43.375-26 3.0219-3.2349 6.312-5.2625 10-5.5-17.47-11.105-34.431-23.059-46-44 4.9167-2.4377 9.0833-2.3676 14-2.875-26.138-23.986-22.986-29.946-24.25-38.625 9.2805-2.7032 19.057-1.9364 29 0-27.133-22.086-52.442-44.958-49.5-80 9.4756 0.48911 17.375 3.4999 24.5 7.75-14.148-28.248-28.028-56.475-3.5-81.5 6.7546 3.5728 14.115 11.237 22.75 27.5-1.5319-17.268 0.50402-32.901 10.25-45 6.0957 10.749 13.732 20.714 19.704 30.847 12.789 21.698 23.82 42.926 36.042 59.937 20.603 28.675 39.801 49.21 54.003 58.966 32.649 12.963 48.312 36.22 66 58.25 34.063 59.483 73.341 71.675 115.25 21z" color="#000000" fill="url(#linearGradient61962)"/>
   <path d="m890.14 257.72c-0.72395-12.995-0.48362-26.077 9-40 3.6876-5.14 11.465-14.907 19.937-28.893 5.0211-13.438 8.1897-29.832 9.5635-47.107 12.219-47.156 30.468-96.323 54-147.25-12.118 1.8889-35.045 0.21911-61.75 48.75 3.9026-17.734 6.2102-36.067 8.25-54.5-33.178 13.729-40.468 44.027-51 72.25l-1.5-37.5c-13.559 6.9697-26.259 16.811-31 53.25l-5-12.5c-20.367 12.151-19.41 30.966-21.75 48.75l-6.5-8.75c-13.912 13.803-10.948 30.872-10.942 47.369-3.409-3.7425-6.2611-8.2418-10.808-10.619-5.5774 16.878-2.3159 28.624-1 41.5-3.5833-3.6594-7.1667-5.4251-10.75-7.25-2.8866 12.029 1.1306 22.333 4.6313 32.765l-7.1464-3.1464c-1.1508 5.6815-1.4454 12.784-0.84434 18.186 1.5309 5.1744-2.3216 10.293-0.64049 13.695 21.425 43.357 68.019 79.347 115.25 21z" color="#000000" fill="url(#linearGradient61954)"/>
  </g>
 </g>
</svg>
